<svg xmlns="http://www.w3.org/2000/svg" width="97" height="88" fill="none" viewBox="0 0 97 88"><path fill="#000" fill-opacity=".04" fill-rule="evenodd" d="M45.097 16.792c-2.373 5.432-7.526 12.607-19.918 16.1C11.876 36.64.44 51.296 16.337 64.488 33.539 78.764 51.212 77.447 59.68 75.555c18.56-4.147 28.214-23.405 27.924-37.778-.26-12.9-7.717-24.205-18.16-28.97-10.133-4.624-20.62-.548-24.347 7.985" clip-rule="evenodd"/><path fill="#fff" fill-rule="evenodd" d="M24.37 22.931a.72.72 0 0 0-.47.67v19.99c-.032 7.359 2.479 14.25 6.801 19.746s10.455 9.593 18.01 11.365a32.2 32.2 0 0 0 17.666-11.365c4.323-5.495 6.834-12.387 6.8-19.745V23.608a.71.71 0 0 0-.467-.676l-23.895-8.87a.88.88 0 0 0-.551 0z" clip-rule="evenodd"/><path fill="#ffe600" stroke="#fff" stroke-width="3" d="M25.503 43.594V24.117l23.034-8.596 23.035 8.597v19.475a30.3 30.3 0 0 1-6.454 18.839 30.55 30.55 0 0 1-16.417 10.756c-7.024-1.737-12.715-5.605-16.745-10.756a30.3 30.3 0 0 1-6.453-18.839Z"/><path stroke="#333" stroke-width="1.5" d="M25.015 52.029a31.8 31.8 0 0 1-1.099-8.442V23.573a.71.71 0 0 1 .468-.671l23.792-8.88a.86.86 0 0 1 .549 0l23.794 8.88a.71.71 0 0 1 .466.678v9.41M25.817 54.568a32 32 0 0 0 4.871 8.789c4.304 5.5 10.41 9.604 17.934 11.378a32.06 32.06 0 0 0 17.59-11.378 31.8 31.8 0 0 0 6.773-19.77V40.29m0-4.442v1.903"/><circle cx="48.498" cy="38.705" r="11.423" fill="#fff" stroke="#333" stroke-width="1.5"/><path stroke="#333" stroke-width="1.5" d="m43.206 39.064 3.451 3.2 7.333-6.8"/></svg>