<svg xmlns="http://www.w3.org/2000/svg" width="24" height="33" fill="none" viewBox="0 0 24 33"><path fill="#3483fa" fill-rule="evenodd" d="M17.419 11.898c0 2.965-2.427 5.37-5.42 5.37s-5.42-2.405-5.42-5.37 2.427-5.37 5.42-5.37 5.42 2.404 5.42 5.37m-9.29 0c0 2.118 1.732 3.835 3.87 3.835s3.871-1.717 3.871-3.835S14.137 8.063 12 8.063c-2.139 0-3.872 1.717-3.872 3.835" clip-rule="evenodd"/><path fill="#3483fa" fill-rule="evenodd" d="M23.827 12.111c0 6.09-3.78 12.837-11.28 20.272l-.548.543-.548-.543C3.951 24.948.172 18.201.172 12.111.17 5.64 5.467.392 11.999.392c6.533 0 11.828 5.247 11.828 11.72M12 1.926c-5.677 0-10.28 4.56-10.28 10.185q-.002 4.069 2.527 8.694a3.88 3.88 0 0 1 3.416-2.027h8.656c1.484 0 2.774.822 3.431 2.033q2.532-4.628 2.53-8.7c0-5.625-4.602-10.185-10.28-10.185m0 28.824q4.187-4.238 6.665-8.113a2.335 2.335 0 0 0-2.346-2.325H7.662a2.315 2.315 0 0 0-2.326 2.304h-.015Q7.8 26.5 11.999 30.75" clip-rule="evenodd"/></svg>