<svg xmlns="http://www.w3.org/2000/svg" width="98" height="88" fill="none" viewBox="0 0 98 88"><g clip-path="url(#a)"><path fill="#000" fill-opacity=".04" fill-rule="evenodd" d="M82.415 46.145c2.287-21.656-4.084-27.362-8.62-30.065-4.447-2.65-11.241-1.803-16.627 2.08-5.912 4.265-9.346 5.874-14.55 6.517-4.97.614-14.484-1.066-21.23 6.228-8.098 8.757-8.67 20.581-3.242 30.033C24.213 71.5 38.504 81.972 56.108 78.84c17.603-3.132 25.074-21.015 26.307-32.695" clip-rule="evenodd"/><path fill="#fff" d="M69.019 30.5a20.6 20.6 0 0 1-1.88 8.623 20.5 20.5 0 0 1-2.6 4.206q-.433.542-.902 1.052c-3.628 3.946-8.786 6.411-14.508 6.411-8.491 0-15.74-5.43-18.593-13.071a20 20 0 0 1-.744-2.454 20.7 20.7 0 0 1-.552-4.767c0-11.207 8.905-20.292 19.89-20.292 10.984 0 19.889 9.085 19.889 20.292"/><path stroke="#333" stroke-width="1.5" d="M29.791 35.267a20.7 20.7 0 0 1-.552-4.767c0-11.207 8.905-20.292 19.89-20.292 10.984 0 19.889 9.085 19.889 20.292a20.6 20.6 0 0 1-1.296 7.22m-37.187 0c2.853 7.643 10.102 13.072 18.593 13.072 5.722 0 10.88-2.465 14.508-6.411m2.98-4.207a20 20 0 0 1-1.05 1.753"/><path fill="#ffe600" stroke="#fff" stroke-width="3" d="M62.491 30.5c0 7.576-6.011 13.665-13.363 13.665S35.765 38.075 35.765 30.5s6.01-13.664 13.363-13.664S62.49 22.926 62.49 30.5Z"/><path stroke="#333" stroke-width="1.5" d="M52.922 26.321c-.547-1.25-1.78-2.02-3.941-2.02-2.263 0-3.944 1.286-3.944 3.172 0 2.338 1.371 2.812 3.454 3.37l.393.108.259.073c1.676.482 3.78.949 3.965 2.825.185 1.875-1.29 3.547-4.277 3.54-2.113-.005-3.898-1.008-4.218-2.59m4.432-12.809v2.31m0 13.248v2.31"/><ellipse cx="49.128" cy="30.499" stroke="#333" stroke-width="1.5" rx="14.863" ry="15.164"/><mask id="b" fill="#fff"><rect width="39.778" height="7.973" x="32.406" y="70.339" rx=".699"/></mask><rect width="39.778" height="7.973" x="32.406" y="70.339" fill="#fff" stroke="#fff" stroke-width="2.795" mask="url(#b)" rx=".699"/><rect width="39.778" height="7.973" x="32.406" y="70.339" stroke="#333" stroke-width="1.5" rx=".699"/><mask id="c" fill="#fff"><rect width="39.778" height="7.973" x="26.072" y="62.368" rx=".699"/></mask><rect width="39.778" height="7.973" x="26.072" y="62.368" fill="#fff" stroke="#fff" stroke-width="2.795" mask="url(#c)" rx=".699"/><rect width="39.778" height="7.973" x="26.072" y="62.368" stroke="#333" stroke-width="1.5" rx=".699"/><mask id="d" fill="#fff"><rect width="39.778" height="7.973" x="30.295" y="54.395" rx=".699"/></mask><rect width="39.778" height="7.973" x="30.295" y="54.395" fill="#fff" stroke="#fff" stroke-width="2.795" mask="url(#d)" rx=".699"/><rect width="39.778" height="7.973" x="30.295" y="54.395" stroke="#333" stroke-width="1.5" rx=".699"/><path stroke="#333" stroke-width="1.5" d="M31.227 64.23v4.249m5.982-4.248v4.249m5.979-4.249v4.249m5.981-4.249v4.249m5.98-4.249v4.249m5.981-4.249v4.249m-23.567 3.739v4.249m5.981-4.248v4.249m5.98-4.249v4.249m5.982-4.249v4.249m5.979-4.249v4.249m5.982-4.249v4.249M35.451 56.245v4.249m5.981-4.248v4.249m5.98-4.249v4.249m5.981-4.249v4.249m5.98-4.249v4.249m5.98-4.249v4.249"/><ellipse cx="68.16" cy="20.189" fill="#fff" stroke="#333" stroke-width="1.5" rx="9.434" ry="9.465"/><path stroke="#333" stroke-width="1.5" d="M68.038 14.229v10.793m-3.723-3.925 3.723 3.924 3.723-3.924"/></g><defs><clipPath id="a"><path fill="#fff" d="M.733.882h97v87h-97z"/></clipPath></defs></svg>