<svg xmlns="http://www.w3.org/2000/svg" width="98" height="88" fill="none" viewBox="0 0 98 88"><g clip-path="url(#a)"><path fill="#000" fill-opacity=".04" fill-rule="evenodd" d="M63.32 9.544c-6.903-.656-14.97 1.202-20 6.181-5.525 5.465-9.978 8.775-16.242 10.701-5.982 1.841-17.333 2.563-23.076 10.265-7.152 9.59-1.64 21.3 9.46 28.675 12.405 8.242 35.622 15.61 55.885 6.89C89.16 63.73 93.152 45.203 90.455 34.29 86.717 19.158 72.768 10.44 63.321 9.544" clip-rule="evenodd"/><path fill="#fff" d="M19.647 35.493h59.375V70.42H19.647z"/><path stroke="#333" stroke-width="1.5" d="M19.647 44.919v-9.423h59.375V55.75m-59.375-8.037v22.709h59.375v-6.635m0-5.242v2.446"/><rect width="23.816" height="16.842" x="28.341" y="45.07" fill="#fff" stroke="#333" stroke-width="1.5" rx=".699"/><path fill="#fff" fill-rule="evenodd" d="M40.249 61.912V45.07z" clip-rule="evenodd"/><path stroke="#333" stroke-width="1.5" d="M40.249 61.912V45.07"/><mask id="b" fill="#fff"><path fill-rule="evenodd" d="M21.4 39.839c3.77 0 6.826-2.372 6.826-5.297l.116-6.778H14.688l-.116 6.778c0 2.925 3.057 5.297 6.827 5.297m36.722 5.93a.7.7 0 0 1 .698-.7h15.344a.7.7 0 0 1 .699.7v24.653h-16.74zm-35.434 7.19 2.373 13.499h-9.79l-2.43-13.499zm33.078-18.417c0 2.925-3.057 5.297-6.827 5.297s-6.827-2.372-6.827-5.297l.116-6.778h13.654zm20.713 5.297c3.77 0 6.827-2.372 6.827-5.297l.116-6.778H69.768l-.116 6.778c0 2.925 3.057 5.297 6.827 5.297" clip-rule="evenodd"/></mask><path fill="#ffe600" fill-rule="evenodd" d="M21.4 39.839c3.77 0 6.826-2.372 6.826-5.297l.116-6.778H14.688l-.116 6.778c0 2.925 3.057 5.297 6.827 5.297m36.722 5.93a.7.7 0 0 1 .698-.7h15.344a.7.7 0 0 1 .699.7v24.653h-16.74zm-35.434 7.19 2.373 13.499h-9.79l-2.43-13.499zm33.078-18.417c0 2.925-3.057 5.297-6.827 5.297s-6.827-2.372-6.827-5.297l.116-6.778h13.654zm20.713 5.297c3.77 0 6.827-2.372 6.827-5.297l.116-6.778H69.768l-.116 6.778c0 2.925 3.057 5.297 6.827 5.297" clip-rule="evenodd"/><path fill="#fff" d="m28.226 34.542-2.096-.036v.036zm.116-6.778 2.097.036.036-2.132h-2.133zm-13.654 0v-2.096h-2.06l-.036 2.06zm-.116 6.778-2.096-.036v.036zm60.291 35.88v2.097h2.097v-2.097zm-16.741 0h-2.097v2.097h2.097zM25.06 66.458v2.097h2.497l-.433-2.46zm-2.373-13.499 2.065-.363-.305-1.733h-1.76zM15.27 66.458l-2.064.371.31 1.726h1.754zm-2.43-13.499v-2.097h-2.508l.444 2.468zm42.925-18.417-2.096-.036v.036zm-13.654 0-2.096-.036v.036zm.116-6.778v-2.096h-2.061l-.035 2.06zm13.654 0 2.096.036.036-2.132h-2.132zm27.424 6.778-2.096-.036v.036zm.116-6.778 2.097.036.036-2.132h-2.133zm-13.654 0v-2.096h-2.06l-.036 2.06zm-.116 6.778-2.096-.036v.036zm-43.522 0c0 1.304-1.592 3.2-4.73 3.2v4.193c4.402 0 8.923-2.846 8.923-7.393zm.116-6.814-.116 6.778 4.193.072.116-6.778zm-11.558 2.133h13.654v-4.193H14.688zm1.98 4.717.117-6.778-4.193-.072-.116 6.778zm4.731 3.164c-3.138 0-4.73-1.896-4.73-3.2h-4.193c0 4.547 4.52 7.393 8.923 7.393zm37.421 5.231a2.795 2.795 0 0 0-2.795 2.796h4.193c0 .771-.626 1.397-1.398 1.397zm15.344 0H58.82v4.193h15.344zm2.796 2.796a2.795 2.795 0 0 0-2.796-2.796v4.193a1.4 1.4 0 0 1-1.398-1.397zm0 24.653V45.77h-4.193v24.653zM58.122 72.52h16.741v-4.193H58.122zm-2.097-26.75v24.653h4.193V45.77zm-28.9 20.326-2.372-13.499-4.13.726 2.373 13.499zm-11.854 2.46h9.79v-4.193h-9.79zM10.777 53.33l2.43 13.5 4.127-.743-2.43-13.5zm11.91-2.468h-9.846v4.194h9.847zm26.252-8.927c4.402 0 8.923-2.846 8.923-7.393H53.67c0 1.304-1.592 3.2-4.73 3.2zm-8.924-7.393c0 4.547 4.521 7.393 8.924 7.393v-4.193c-3.139 0-4.73-1.896-4.73-3.2zm.117-6.814-.116 6.778 4.192.072.116-6.778zm15.75-2.06H42.228v4.193h13.654zm1.98 8.91.116-6.778-4.192-.072-.116 6.778zm23.348-.036c0 1.304-1.592 3.2-4.73 3.2v4.193c4.402 0 8.923-2.846 8.923-7.393zm.116-6.814-.116 6.778 4.193.072.116-6.778zm-11.558 2.133h13.654v-4.193H69.768zm1.98 4.717.117-6.778-4.193-.072-.116 6.778zm4.731 3.164c-3.138 0-4.73-1.896-4.73-3.2h-4.193c0 4.547 4.521 7.393 8.923 7.393z" mask="url(#b)"/><path stroke="#333" stroke-width="1.5" d="M58.121 46.468c0-.772.626-1.398 1.398-1.398h13.946c.772 0 1.397.626 1.397 1.398v23.954h-16.74z"/><circle cx="66.492" cy="53.491" r="3.724" fill="#fff" stroke="#333" stroke-width="1.5"/><path stroke="#333" stroke-width="1.5" d="m9.363 70.359 3.005-17.4h9.847"/><path stroke="#333" stroke-width="1.5" d="m25.693 70.359-3.004-17.4h-9.847l3.005 17.4"/><path stroke="#333" stroke-width="1.5" d="m25.062 66.458-2.373-13.499h-9.847l2.373 13.499z" clip-rule="evenodd"/><path fill="#fff" fill-rule="evenodd" stroke="#333" stroke-width="1.5" d="M41.999 34.542c0 2.926-3.057 5.297-6.827 5.297s-6.827-2.371-6.827-5.297l.116-6.777h13.654zm27.539 0c0 2.926-3.057 5.297-6.827 5.297s-6.827-2.371-6.827-5.297L56 27.765h13.654z" clip-rule="evenodd"/><path stroke="#333" stroke-width="1.5" d="M28.228 34.542c0 2.926-3.056 5.297-6.827 5.297s-6.827-2.371-6.827-5.297l.116-6.777h13.654zm27.542 0c0 2.926-3.057 5.297-6.828 5.297-3.77 0-6.827-2.371-6.827-5.297l.116-6.777h13.654zm27.538 0c0 2.926-3.056 5.297-6.827 5.297s-6.827-2.371-6.827-5.297l.116-6.777h13.654z" clip-rule="evenodd"/><path fill="#fff" fill-rule="evenodd" stroke="#333" stroke-width="1.5" d="m14.511 27.56.045-.054c.642-.763 5.86-8.918 6.178-9.307a2.8 2.8 0 0 1 2.165-1.018h52a2.59 2.59 0 0 1 2.128 1.131s6.794 9.103 6.372 9.232-69.052.217-68.888.015Z" clip-rule="evenodd"/><path fill="#fff" fill-rule="evenodd" d="M60.766 60.317h2.002z" clip-rule="evenodd"/><path stroke="#333" stroke-linecap="round" stroke-width="1.5" d="M60.766 60.317h2.002"/></g><defs><clipPath id="a"><path fill="#fff" d="M.5.882h97v87H.5z"/></clipPath></defs></svg>